<svg width="48" height="48" viewBox="0 0 48 48" fill="none" xmlns="http://www.w3.org/2000/svg">
<path d="M23.808 18.1106C23.9111 18.1777 24.0315 18.2134 24.1545 18.2135C24.2434 18.2137 24.3314 18.1947 24.4126 18.1586C24.4939 18.1225 24.5666 18.0696 24.626 18.0035C25.695 16.8225 27.0655 13.9385 24.604 11.477C22.3795 9.253 24.5415 6.6625 24.637 6.55C24.747 6.42223 24.8017 6.256 24.7892 6.08787C24.7766 5.91975 24.6978 5.7635 24.57 5.6535C24.4422 5.5435 24.276 5.48876 24.1079 5.50133C23.9397 5.51389 23.7835 5.59273 23.6735 5.7205C22.611 6.95 21.2515 9.923 23.705 12.3765C25.9205 14.593 23.775 17.051 23.683 17.151C23.6005 17.2423 23.5462 17.3555 23.5268 17.477C23.5073 17.5985 23.5236 17.723 23.5735 17.8355C23.6234 17.9479 23.7048 18.0435 23.808 18.1106Z" fill="currentColor"/>
<path fill-rule="evenodd" clip-rule="evenodd" d="M13.3926 22.6163C13.3747 22.5633 13.3621 22.509 13.3549 22.4534C13.3382 22.38 13.3346 22.3041 13.3444 22.2293C13.3549 22.1489 13.3807 22.0712 13.4204 22.0006C14.2756 20.0422 22.4431 19.9385 24.1545 19.9385C25.961 19.9385 34.961 20.055 34.961 22.3445C34.961 22.4448 34.9437 22.541 34.9105 22.6332L34.3325 25.1985H35.889C36.2619 25.1981 36.6298 25.2835 36.9644 25.4481C37.2989 25.6128 37.5911 25.8522 37.8183 26.1478C38.0455 26.4435 38.2016 26.7874 38.2746 27.1531C38.3475 27.5188 38.3354 27.8963 38.239 28.2565C37.9581 29.3028 37.3403 30.2273 36.4812 30.8871C35.622 31.5469 34.5693 31.9052 33.486 31.9065L33.483 31.905H32.8214L32.5686 33.0268C35.8526 33.562 40.808 34.7897 40.808 37.3245C40.808 40.5605 32.43 42.2535 24.154 42.2535C15.878 42.2535 7.5 40.5605 7.5 37.3245C7.5 34.7311 12.8684 33.4998 15.7381 33.0273L13.3926 22.6163ZM24.1545 24.7515C22.8287 24.7515 17.6204 24.6886 14.9483 23.7476L17.043 33.0475C17.3448 34.4149 18.1059 35.6378 19.1994 36.5125C20.293 37.3871 21.6532 37.861 23.0535 37.855H25.251C26.6513 37.8611 28.0115 37.3874 29.105 36.5126C30.1985 35.6379 30.9594 34.415 31.261 33.0475L33.3558 23.749C30.6825 24.6882 25.4805 24.7515 24.1545 24.7515ZM33.1078 30.634L34.0461 26.4695H35.889C36.0667 26.4696 36.242 26.5105 36.4013 26.5892C36.5606 26.6678 36.6997 26.782 36.8079 26.923C36.9161 27.064 36.9904 27.2279 37.0251 27.4022C37.0598 27.5764 37.0539 27.7564 37.008 27.928C36.7996 28.7037 36.3414 29.3892 35.7043 29.8783C35.0672 30.3674 34.2867 30.633 33.4835 30.634H33.1078ZM16.0771 34.2605C10.7268 35.1119 8.771 36.5481 8.771 37.3245C8.771 38.852 14.6235 40.982 24.154 40.982C33.6845 40.982 39.5365 38.852 39.5365 37.3245C39.5365 36.5506 37.5829 35.1117 32.2299 34.2602C31.7685 35.5302 30.9652 36.6557 29.9004 37.5075C28.5812 38.5628 26.9403 39.1339 25.251 39.1265H23.0555C21.3662 39.1336 19.7255 38.5619 18.4064 37.5066C17.3419 36.6551 16.5387 35.53 16.0771 34.2605ZM14.787 22.3445C15.651 22.7995 18.826 23.4805 24.1545 23.4805C29.483 23.4805 32.6575 22.7995 33.5215 22.3445C32.6575 21.8905 29.4835 21.2095 24.1545 21.2095C18.8255 21.2095 15.6515 21.8905 14.787 22.3445Z" fill="currentColor"/>
<path d="M28.7545 18.6365C28.6355 18.6363 28.519 18.6027 28.4182 18.5396C28.3173 18.4764 28.2363 18.3862 28.1842 18.2793C28.1321 18.1723 28.111 18.0529 28.1235 17.9346C28.1359 17.8162 28.1813 17.7038 28.2545 17.61C28.313 17.5335 29.7185 15.66 28.2745 13.984C26.5745 12.013 27.513 9.6305 28.246 8.6455C28.3486 8.51599 28.4975 8.43151 28.6613 8.40996C28.8251 8.3884 28.9908 8.43147 29.1234 8.53004C29.256 8.6286 29.3449 8.77491 29.3715 8.93797C29.398 9.10102 29.36 9.26799 29.2655 9.4035C29.2005 9.493 27.7855 11.4705 29.236 13.1535C30.9415 15.131 29.9945 17.4445 29.256 18.392C29.1967 18.4681 29.1209 18.5297 29.0343 18.572C28.9476 18.6144 28.8525 18.6365 28.756 18.6365H28.7545Z" fill="currentColor"/>
<path d="M19.515 18.5336C19.6181 18.6007 19.7385 18.6364 19.8615 18.6365V18.6355C19.9504 18.6357 20.0384 18.6172 20.1196 18.5811C20.2009 18.545 20.2736 18.4921 20.333 18.426C21.101 17.5775 22.085 15.5035 20.311 13.73C18.9675 12.3865 20.197 10.85 20.344 10.677C20.454 10.5492 20.5087 10.383 20.4962 10.2149C20.4836 10.0467 20.4048 9.8905 20.277 9.7805C20.1492 9.6705 19.983 9.61576 19.8149 9.62833C19.6467 9.64089 19.4905 9.71973 19.3805 9.8475C18.6195 10.729 17.6455 12.8625 19.412 14.629C20.7465 15.9635 19.5315 17.415 19.39 17.574C19.3075 17.6653 19.2532 17.7785 19.2338 17.9C19.2143 18.0215 19.2306 18.146 19.2805 18.2585C19.3304 18.3709 19.4118 18.4665 19.515 18.5336Z" fill="currentColor"/>
</svg>
