<svg width="48" height="48" viewBox="0 0 48 48" fill="none" xmlns="http://www.w3.org/2000/svg">
<path d="M14.3 39.3715C14.058 39.3717 13.8185 39.323 13.5957 39.2285C13.3729 39.134 13.1715 38.9955 13.0035 38.8214C12.8354 38.6472 12.7043 38.441 12.6177 38.215C12.5312 37.989 12.4912 37.7478 12.5 37.506L13.2885 16.462C13.3045 15.9966 13.501 15.5556 13.8364 15.2325C14.1718 14.9094 14.6198 14.7296 15.0855 14.731H18.296V14.221C18.296 13.4698 18.444 12.7259 18.7314 12.0319C19.0189 11.3378 19.4403 10.7072 19.9715 10.176C20.5027 9.6448 21.1333 9.22343 21.8274 8.93595C22.5214 8.64847 23.2653 8.5005 24.0165 8.5005C24.7677 8.5005 25.5116 8.64847 26.2056 8.93595C26.8997 9.22343 27.5303 9.6448 28.0615 10.176C28.5927 10.7072 29.0141 11.3378 29.3016 12.0319C29.589 12.7259 29.737 13.4698 29.737 14.221V14.731H32.9475C33.4132 14.7296 33.8612 14.9094 34.1966 15.2325C34.532 15.5556 34.7285 15.9966 34.7445 16.462L35.532 37.5065C35.5407 37.748 35.5007 37.9889 35.4144 38.2146C35.328 38.4404 35.1971 38.6464 35.0294 38.8204C34.8617 38.9945 34.6606 39.133 34.4383 39.2277C34.2159 39.3223 33.9767 39.3713 33.735 39.3715H14.3ZM13.718 37.55C13.7154 37.6278 13.7284 37.7053 13.7564 37.7779C13.7843 37.8505 13.8266 37.9168 13.8806 37.9728C13.9347 38.0288 13.9994 38.0733 14.0711 38.1037C14.1427 38.1342 14.2197 38.1499 14.2975 38.15H33.734C33.8119 38.1501 33.8889 38.1344 33.9606 38.104C34.0323 38.0736 34.0971 38.0291 34.1512 37.9731C34.2053 37.9171 34.2475 37.8508 34.2754 37.7781C34.3033 37.7054 34.3163 37.6278 34.3135 37.55L34.2885 36.8795H13.743L13.718 37.55ZM34.243 35.662L33.527 16.508C33.5215 16.3579 33.4579 16.2157 33.3496 16.1116C33.2413 16.0075 33.0967 15.9495 32.9465 15.95H29.7365V17.085C30.2167 17.231 30.6285 17.5446 30.8969 17.9687C31.1652 18.3929 31.2723 18.8993 31.1985 19.3958C31.1247 19.8922 30.8751 20.3457 30.495 20.6734C30.1149 21.0012 29.6297 21.1815 29.1277 21.1815C28.6258 21.1815 28.1406 21.0012 27.7605 20.6734C27.3804 20.3457 27.1308 19.8922 27.057 19.3958C26.9832 18.8993 27.0903 18.3929 27.3586 17.9687C27.627 17.5446 28.0388 17.231 28.519 17.085V15.95H19.5135V17.085C19.9937 17.231 20.4055 17.5446 20.6739 17.9687C20.9422 18.3929 21.0493 18.8993 20.9755 19.3958C20.9017 19.8922 20.6521 20.3457 20.272 20.6734C19.8919 21.0012 19.4067 21.1815 18.9047 21.1815C18.4028 21.1815 17.9176 21.0012 17.5375 20.6734C17.1574 20.3457 16.9078 19.8922 16.834 19.3958C16.7602 18.8993 16.8673 18.3929 17.1356 17.9687C17.404 17.5446 17.8158 17.231 18.296 17.085V15.95H15.0855C14.9351 15.9497 14.7905 16.0079 14.6824 16.1123C14.5742 16.2168 14.5109 16.3592 14.506 16.5095L13.789 35.664L34.243 35.662ZM28.25 19.0885C28.2501 19.2616 28.3015 19.4309 28.3978 19.5748C28.4941 19.7187 28.6308 19.8308 28.7908 19.897C28.9508 19.9632 29.1268 19.9805 29.2966 19.9466C29.4664 19.9128 29.6224 19.8294 29.7447 19.7069C29.8671 19.5844 29.9505 19.4284 29.9842 19.2586C30.018 19.0888 30.0006 18.9128 29.9343 18.7528C29.868 18.5929 29.7558 18.4562 29.6118 18.36C29.4679 18.2638 29.2986 18.2125 29.1255 18.2125C28.8933 18.2128 28.6707 18.3052 28.5065 18.4694C28.3424 18.6336 28.2501 18.8563 28.25 19.0885ZM18.027 19.0885C18.027 19.2618 18.0784 19.4312 18.1747 19.5752C18.2709 19.7193 18.4078 19.8316 18.5679 19.8979C18.728 19.9642 18.9041 19.9815 19.0741 19.9476C19.244 19.9138 19.4001 19.8303 19.5226 19.7078C19.6451 19.5852 19.7285 19.4291 19.7622 19.2591C19.796 19.0891 19.7786 18.913 19.7122 18.7529C19.6458 18.5929 19.5334 18.4561 19.3893 18.3599C19.2452 18.2637 19.0758 18.2124 18.9025 18.2125C18.6706 18.2132 18.4483 18.3057 18.2845 18.4699C18.1207 18.6341 18.0286 18.8566 18.0285 19.0885H18.027ZM28.517 14.7305V14.2205C28.517 13.0263 28.0426 11.881 27.1982 11.0366C26.3537 10.1921 25.2085 9.71775 24.0142 9.71775C22.82 9.71775 21.6748 10.1921 20.8303 11.0366C19.9859 11.881 19.5115 13.0263 19.5115 14.2205V14.7305H28.517Z" fill="currentColor"/>
</svg>
