<svg width="48" height="48" viewBox="0 0 48 48" fill="none" xmlns="http://www.w3.org/2000/svg">
<path d="M28.95 40.0005C27.9409 39.9982 26.9455 39.7676 26.0392 39.3262C25.5579 39.0976 25.0331 38.9739 24.4997 38.9634C23.9667 38.9738 23.442 39.0975 22.9611 39.3262C22.0543 39.7674 21.0587 39.998 20.0492 40.0005H19.9025C14.994 40.0005 11 34.4308 11 27.5835C11 20.7361 14.994 15.1643 19.9025 15.1643H20.0492C21.0587 15.1672 22.0544 15.3982 22.9611 15.8397C23.4421 16.068 23.9668 16.1913 24.4997 16.2014C25.033 16.1913 25.5578 16.068 26.0392 15.8397C26.9454 15.398 27.9408 15.167 28.95 15.1643H29.0967C34.0052 15.1643 37.9995 20.735 37.9995 27.5835C37.9995 34.4319 34.0052 40.0005 29.0967 40.0005H28.95ZM24.5727 37.5787C25.3408 37.5783 26.0993 37.7491 26.7923 38.0786C27.4875 38.4178 28.249 38.6015 29.0233 38.6168C31.003 38.5899 32.8668 37.4328 34.2705 35.363C35.7522 33.0394 36.514 30.3341 36.4613 27.5835C36.5139 24.8327 35.7521 22.1272 34.2705 19.8035C32.8668 17.7325 31.0041 16.5743 29.0233 16.5496C28.249 16.5649 27.4875 16.7486 26.7923 17.0878C26.0995 17.4177 25.3409 17.5886 24.5727 17.5877H24.427C23.6588 17.5886 22.9002 17.4177 22.2074 17.0878C21.5116 16.7482 20.7493 16.5645 19.9744 16.5496C17.9957 16.5765 16.1308 17.7336 14.7292 19.8035C13.2469 22.127 12.4847 24.8326 12.5374 27.5835C12.4847 30.3342 13.2468 33.0397 14.7292 35.363C16.1329 37.4339 17.9957 38.5921 19.9754 38.6168C20.7501 38.6019 21.512 38.4181 22.2074 38.0786C22.9002 37.7485 23.6588 37.5777 24.427 37.5787H24.5727ZM24.4011 15.8515C23.2419 15.749 22.1146 15.4186 21.0848 14.8795C20.0551 14.3404 19.1433 13.6034 18.4024 12.7112C17.8234 12.0026 17.3941 11.1851 17.1402 10.3077C16.8863 9.43036 16.8129 8.5111 16.9245 7.6049C16.9467 7.43772 17.0291 7.28424 17.1566 7.17298C17.284 7.06171 17.4477 7.00025 17.6173 7C17.6393 7 17.6614 7.00107 17.6834 7.00322C18.8439 7.09919 19.9737 7.42311 21.0074 7.95625C22.0411 8.48938 22.9582 9.22114 23.7054 10.1091C24.1052 10.6018 24.4381 11.1447 24.6956 11.7237C25.2539 10.2183 26.1096 8.83931 27.2123 7.66787C27.2773 7.60042 27.3553 7.54682 27.4418 7.51036C27.5282 7.47391 27.6214 7.45536 27.7153 7.45584C27.8953 7.45512 28.0685 7.52402 28.1983 7.64797C28.3312 7.77532 28.4078 7.94985 28.4116 8.13333C28.4154 8.31681 28.3457 8.49428 28.2181 8.62691C25.8004 11.13 25.2786 14.752 25.2267 15.1562L25.2219 15.2073C25.21 15.304 25.1777 15.3971 25.1273 15.4805C25.0768 15.564 25.0093 15.6359 24.929 15.6917L24.8717 15.7299C24.7555 15.8125 24.6158 15.8562 24.473 15.8548C24.4454 15.858 24.4218 15.8542 24.3985 15.8526L24.4011 15.8515ZM19.4938 11.8517C20.0355 12.5231 20.7019 13.0848 21.4567 13.5061C22.2084 13.9289 23.0258 14.2236 23.8754 14.378C23.8585 13.135 23.4153 11.9351 22.619 10.9766C21.5138 9.65458 19.9691 8.76952 18.2644 8.48162C18.2794 9.71069 18.7115 10.8986 19.4909 11.8528L19.4938 11.8517Z" fill="currentColor"/>
</svg>
