<svg width="48" height="48" viewBox="0 0 48 48" fill="none" xmlns="http://www.w3.org/2000/svg">
<path d="M19.9429 39.159C19.7865 39.1589 19.6366 39.0967 19.5259 38.9861C19.4153 38.8754 19.3532 38.7254 19.3531 38.569V31.479L13.2149 35.0235C13.0787 35.1021 12.9168 35.1233 12.765 35.0825C12.69 35.0627 12.6196 35.0281 12.5582 34.9808C12.4967 34.9335 12.4454 34.8744 12.407 34.807L8.58014 28.179C8.5407 28.1117 8.51508 28.0373 8.50495 27.96C8.49481 27.8827 8.50028 27.8041 8.52106 27.729C8.56231 27.5781 8.66116 27.4495 8.79645 27.371L14.9351 23.8275L8.79547 20.283C8.72828 20.2445 8.6695 20.193 8.62238 20.1316C8.57526 20.0701 8.54082 19.9999 8.52106 19.925C8.50042 19.8498 8.49506 19.7713 8.50519 19.694C8.51532 19.6168 8.54083 19.5423 8.58014 19.475L12.407 12.846C12.4455 12.7784 12.497 12.7193 12.5587 12.6719C12.6203 12.6246 12.6907 12.5901 12.7659 12.5705C12.9179 12.5305 13.0796 12.5517 13.2161 12.6295L19.3541 16.174V9.08899C19.3545 8.93273 19.4168 8.78301 19.5274 8.67261C19.638 8.56221 19.7876 8.50013 19.9439 8.5H27.598C27.7543 8.50013 27.9042 8.56217 28.015 8.67255C28.1257 8.78292 28.1884 8.93263 28.189 9.08899V16.179L34.3275 12.6345C34.4167 12.5824 34.5183 12.555 34.6216 12.555C34.7253 12.5551 34.8268 12.5825 34.9166 12.6342C35.0063 12.686 35.0811 12.7604 35.1331 12.85L38.961 19.479C39.0391 19.6141 39.0604 19.7747 39.0201 19.9255C38.9796 20.0767 38.8807 20.2057 38.7454 20.2845L32.605 23.829L38.7444 27.3725C38.8795 27.451 38.9781 27.5798 39.0186 27.7307C39.0592 27.8815 39.0385 28.0423 38.961 28.178L35.1331 34.808C35.0946 34.8753 35.043 34.9343 34.9815 34.9816C34.9201 35.0289 34.8499 35.0635 34.775 35.0835C34.6997 35.1036 34.6212 35.1086 34.544 35.0983C34.4668 35.088 34.3924 35.0626 34.325 35.0235L28.1866 31.48V38.569C28.1862 38.7255 28.1238 38.8755 28.013 38.9861C27.9022 39.0967 27.7521 39.1589 27.5955 39.159H19.9429ZM20.2381 29.947C20.3276 29.9987 20.4018 30.0732 20.4534 30.1628C20.505 30.2524 20.5322 30.3541 20.532 30.4575V37.979H27.0081V30.4595C27.0083 30.356 27.0354 30.2544 27.087 30.1646C27.1386 30.0749 27.2127 30.0002 27.3021 29.948C27.3924 29.8968 27.4942 29.8698 27.598 29.8695C27.7011 29.8696 27.8024 29.8967 27.8919 29.948L34.4061 33.708L37.6431 28.1L31.1299 24.34C31.0404 24.2881 30.9661 24.2137 30.9144 24.1241C30.8626 24.0345 30.8353 23.933 30.835 23.8295C30.8353 23.726 30.8626 23.6245 30.9144 23.5349C30.9661 23.4453 31.0404 23.3709 31.1299 23.319L37.6431 19.558L34.4061 13.951L27.8919 17.712C27.8024 17.7633 27.7011 17.7904 27.598 17.7905C27.4945 17.7902 27.393 17.7632 27.303 17.712C27.2137 17.6599 27.1394 17.5854 27.0877 17.4959C27.036 17.4064 27.0087 17.3049 27.0081 17.2015V9.67899H20.532V17.199C20.5321 17.3024 20.5048 17.404 20.4532 17.4936C20.4016 17.5832 20.3275 17.6576 20.2381 17.7095C20.1482 17.7607 20.0464 17.7877 19.9429 17.788C19.8398 17.7879 19.7385 17.7608 19.649 17.7095L13.1351 13.9495L9.89704 19.5565L16.41 23.3165C16.4993 23.3688 16.5735 23.4435 16.6251 23.5332C16.6766 23.6229 16.7037 23.7245 16.7039 23.828C16.7041 23.9314 16.6772 24.0331 16.6256 24.1227C16.5739 24.2123 16.4995 24.2867 16.41 24.3385L9.89704 28.0985L13.1351 33.7065L19.649 29.9455C19.7383 29.8937 19.8397 29.8666 19.9429 29.867C20.0466 29.8672 20.1485 29.8948 20.2381 29.947Z" fill="currentColor"/>
</svg>
