<svg width="48" height="48" viewBox="0 0 48 48" fill="none" xmlns="http://www.w3.org/2000/svg">
<path d="M23.9 40.0085H23.88C23.843 40.0073 23.8062 40.0028 23.77 39.995H23.7625H23.759H23.7545H23.7465C23.7009 39.9835 23.6567 39.9667 23.615 39.945L8.3225 31.8295C8.22508 31.778 8.14356 31.701 8.08673 31.6066C8.0299 31.5122 7.99991 31.4041 8 31.294V16C8 16 8 16 8 15.9965C8 15.993 8 15.993 8 15.991V15.9875C8 15.985 8 15.982 8 15.9795V15.94C8.01021 15.8396 8.04532 15.7433 8.10217 15.6599C8.15901 15.5765 8.23578 15.5087 8.3255 15.4625L23.6205 7.56747C23.7065 7.52313 23.8019 7.5 23.8988 7.5C23.9956 7.5 24.091 7.52313 24.177 7.56747L39.468 15.4625C39.5668 15.5133 39.6497 15.5903 39.7077 15.6851C39.7656 15.7799 39.7963 15.8889 39.7965 16C39.7965 16.0123 39.7965 16.0245 39.7965 16.0365V31.294C39.7967 31.4041 39.7668 31.5122 39.7101 31.6066C39.6533 31.7009 39.5719 31.778 39.4745 31.8295L24.1855 39.9365L24.1765 39.941C24.1276 39.9664 24.0755 39.9849 24.0215 39.996H24.0145H24.007C23.9839 40.0002 23.9605 40.003 23.937 40.0045H23.9V40.0085ZM9.213 30.9295L23.292 38.395V24.476L9.213 17.0105V30.9295ZM24.5045 38.3945L38.5835 30.9295V17.0105L34.661 19.0905V22.216C34.6613 22.3261 34.6315 22.4342 34.5747 22.5286C34.5179 22.623 34.4364 22.7001 34.339 22.7515L31.089 24.4735C31.0016 24.5196 30.9043 24.5437 30.8055 24.5435C30.7259 24.5435 30.6471 24.5279 30.5736 24.4975C30.5001 24.467 30.4333 24.4224 30.377 24.3661C30.3208 24.3098 30.2762 24.243 30.2458 24.1694C30.2154 24.0959 30.1999 24.017 30.2 23.9375V21.455L24.5045 24.4755V38.3945ZM9.915 16.009L23.9 23.424L29.4935 20.458L15.4935 13.1305L9.915 16.009ZM31.415 22.9295L33.45 21.85V19.733L31.415 20.812V22.9295ZM16.8305 12.4635L30.7915 19.769L32.7685 18.719L18.774 11.46L16.8305 12.4635ZM34.0705 18.03L37.8815 16.009L23.9 8.78897L20.0695 10.766L34.0705 18.03Z" fill="currentColor"/>
</svg>
