<svg width="48" height="48" viewBox="0 0 48 48" fill="none" xmlns="http://www.w3.org/2000/svg">
<path fill-rule="evenodd" clip-rule="evenodd" d="M21.778 12.0065C21.0763 12.0065 20.3903 11.7985 19.8068 11.4088C19.2233 11.019 18.7684 10.4649 18.4998 9.81663C18.2312 9.16836 18.1608 8.45498 18.2977 7.76672C18.4345 7.07846 18.7723 6.44623 19.2684 5.94997C19.7646 5.45372 20.3967 5.11572 21.0849 4.97874C21.7732 4.84175 22.4866 4.91193 23.1349 5.18038C23.7833 5.44884 24.3374 5.90353 24.7274 6.48694C25.1173 7.07036 25.3255 7.7563 25.3255 8.45802C25.325 9.39879 24.951 10.3009 24.2859 10.9662C23.6208 11.6315 22.7188 12.0056 21.778 12.0065ZM21.778 6.15898C21.3233 6.15898 20.8788 6.29381 20.5007 6.54644C20.1226 6.79906 19.828 7.15812 19.654 7.57822C19.4799 7.99831 19.4344 8.46057 19.5231 8.90655C19.6118 9.35252 19.8308 9.76217 20.1523 10.0837C20.4739 10.4052 20.8835 10.6242 21.3295 10.7129C21.7755 10.8016 22.2377 10.7561 22.6578 10.5821C23.0779 10.4081 23.437 10.1134 23.6896 9.73531C23.9422 9.35723 24.077 8.91273 24.077 8.45802C24.0763 7.84849 23.8339 7.26413 23.4029 6.83313C22.9719 6.40213 22.3875 6.15968 21.778 6.15898Z" fill="currentColor"/>
<path fill-rule="evenodd" clip-rule="evenodd" d="M17.3721 13.1173C17.3893 13.1159 17.4066 13.1151 17.424 13.1151H26.1293C26.1466 13.1151 26.1638 13.1159 26.1809 13.1173C27.2457 13.1313 28.264 13.5602 29.0182 14.3139C29.7841 15.0793 30.2153 16.1173 30.217 17.2002V26.3187H32.8196C33.2653 26.3195 33.6924 26.497 34.0074 26.8122C34.3224 27.1275 34.4995 27.5547 34.5 28.0004V33.1324C34.4994 33.5779 34.3222 34.0051 34.0072 34.3202C33.6923 34.6354 33.2652 34.8128 32.8196 34.8136H26.7609V40.2111C26.76 40.9537 26.4646 41.6656 25.9395 42.1906C25.4144 42.7157 24.7025 43.0111 23.9599 43.0121H23.955C23.5378 43.0116 23.1261 42.9179 22.7498 42.7379C22.3735 42.5578 22.0422 42.2959 21.7802 41.9713C21.4164 42.4222 20.9216 42.7492 20.3642 42.9071C19.8067 43.065 19.214 43.0461 18.6677 42.853C18.1215 42.6599 17.6486 42.3021 17.3142 41.8289C16.9798 41.3557 16.8005 40.7905 16.8009 40.2111V28.4051C16.5307 28.5564 16.2321 28.6498 15.9239 28.6794C15.5965 28.7114 15.2662 28.6745 14.954 28.5711C14.6418 28.4676 14.3547 28.3 14.1112 28.0789C13.8677 27.8578 13.6732 27.5882 13.5402 27.2874C13.4072 26.9866 13.3387 26.6613 13.339 26.3325V17.2002C13.3406 16.1177 13.7714 15.0801 14.5368 14.3147C15.2903 13.5611 16.3078 13.132 17.3721 13.1173ZM25.5124 34.8136H22.8357C22.6881 34.8135 22.5426 34.794 22.4025 34.7566V40.1489C22.4045 40.1694 22.4056 40.1902 22.4056 40.2111C22.4056 40.6231 22.5692 41.0182 22.8606 41.3095C23.1519 41.6008 23.547 41.7645 23.959 41.7645C24.371 41.7645 24.7661 41.6008 25.0574 41.3095C25.3487 41.0182 25.5124 40.6231 25.5124 40.2111V34.8136ZM21.154 28.0004C21.1543 27.5545 21.3316 27.1269 21.6469 26.8116C21.9622 26.4963 22.3898 26.319 22.8357 26.3187H25.5091C25.5072 26.299 25.5062 26.2792 25.5062 26.2592V19.9883C25.5062 19.8228 25.572 19.664 25.689 19.5469C25.8061 19.4298 25.9649 19.3641 26.1304 19.3641C26.296 19.3641 26.4548 19.4298 26.5718 19.5469C26.6889 19.664 26.7547 19.8228 26.7547 19.9883V26.2592C26.7547 26.2792 26.7537 26.299 26.7518 26.3187H28.969V17.2002C28.9678 16.4483 28.6685 15.7275 28.1368 15.1959C27.6051 14.6643 26.8843 14.3651 26.1324 14.3641H17.4249C16.6729 14.3649 15.9518 14.6639 15.4199 15.1956C14.888 15.7272 14.5887 16.4481 14.5875 17.2002V26.3325C14.5877 26.4866 14.6199 26.639 14.6823 26.78C14.7447 26.921 14.8357 27.0475 14.9497 27.1513C15.064 27.2562 15.1993 27.3355 15.3465 27.3841C15.4938 27.4327 15.6498 27.4494 15.804 27.4332C16.0857 27.3946 16.3431 27.2534 16.5271 27.0366C16.7063 26.8255 16.8034 26.5572 16.8013 26.2808L16.801 26.2715L16.8009 26.2592V19.9883C16.8009 19.8228 16.8666 19.664 16.9837 19.5469C17.1008 19.4298 17.2596 19.3641 17.4251 19.3641C17.5907 19.3641 17.7495 19.4298 17.8665 19.5469C17.9836 19.664 18.0494 19.8228 18.0494 19.9883V26.2254C18.05 26.2365 18.0503 26.2476 18.0503 26.2588V40.2111C18.0503 40.6231 18.2139 41.0182 18.5052 41.3095C18.7966 41.6008 19.1917 41.7645 19.6037 41.7645C20.0157 41.7645 20.4108 41.6008 20.7021 41.3095C20.9811 41.0305 21.143 40.6563 21.1562 40.2633C21.1547 40.246 21.154 40.2286 21.154 40.2111V28.0004ZM22.4025 29.6805L22.4025 29.682L22.4025 33.1324L22.4025 33.1331C22.4029 33.2476 22.4486 33.3573 22.5296 33.4383C22.6108 33.5194 22.7209 33.565 22.8357 33.5651H32.8196C32.9344 33.565 33.0445 33.5194 33.1257 33.4383C33.2069 33.3572 33.2526 33.2472 33.2528 33.1324V28.0004C33.2527 27.8855 33.207 27.7754 33.1258 27.6942C33.0446 27.613 32.9345 27.5673 32.8196 27.5672H22.8357C22.7208 27.5673 22.6107 27.613 22.5295 27.6942C22.4483 27.7754 22.4026 27.8855 22.4025 28.0004V29.6805Z" fill="currentColor"/>
</svg>
