<svg width="48" height="48" viewBox="0 0 48 48" fill="none" xmlns="http://www.w3.org/2000/svg">
<path fill-rule="evenodd" clip-rule="evenodd" d="M33.7121 41.4281C34.274 41.99 35.0359 42.3061 35.8305 42.307C36.6252 42.3061 37.3868 41.99 37.9487 41.4281C38.5106 40.8663 38.8268 40.1044 38.8277 39.3098C38.8269 38.515 38.5109 37.753 37.949 37.1909C37.3871 36.6288 36.6253 36.3125 35.8305 36.3115C35.0358 36.3125 34.2737 36.6288 33.7118 37.1909C33.1499 37.753 32.8339 38.515 32.8331 39.3098C32.834 40.1044 33.1502 40.8663 33.7121 41.4281ZM34.6457 38.1248C34.9599 37.8104 35.386 37.6335 35.8305 37.6329C36.2751 37.6334 36.7013 37.8102 37.0157 38.1246C37.3301 38.4389 37.507 38.8652 37.5074 39.3098C37.507 39.7544 37.3301 40.1807 37.0157 40.495C36.7013 40.8094 36.2751 40.9862 35.8305 40.9867C35.386 40.9861 34.9599 40.8092 34.6457 40.4949C34.3314 40.1805 34.1544 39.7543 34.1539 39.3098C34.1544 38.8653 34.3314 38.4391 34.6457 38.1248Z" fill="currentColor"/>
<path fill-rule="evenodd" clip-rule="evenodd" d="M20.1006 41.4284C20.6627 41.9903 21.4246 42.3062 22.2194 42.307C23.014 42.3061 23.776 41.99 24.3378 41.4281C24.8997 40.8663 25.2159 40.1044 25.2168 39.3098C25.2161 38.515 24.9 37.753 24.3381 37.1909C23.7762 36.6288 23.0142 36.3125 22.2194 36.3115C21.4245 36.3124 20.6625 36.6286 20.1004 37.1907C19.5383 37.7528 19.222 38.5149 19.2211 39.3098C19.2222 40.1046 19.5385 40.8665 20.1006 41.4284ZM21.0339 38.1245C21.3484 37.8102 21.7747 37.6334 22.2194 37.6329C22.6639 37.6335 23.09 37.8104 23.4043 38.1248C23.7185 38.4391 23.8953 38.8653 23.8957 39.3098C23.8953 39.7543 23.7185 40.1805 23.4043 40.4949C23.09 40.8092 22.6639 40.9861 22.2194 40.9867C21.7747 40.9862 21.3484 40.8094 21.0339 40.4951C20.7195 40.1807 20.5426 39.7545 20.5419 39.3098C20.5426 38.8652 20.7195 38.4389 21.0339 38.1245Z" fill="currentColor"/>
<path fill-rule="evenodd" clip-rule="evenodd" d="M16.6541 35.2365H40.631V35.2348C40.8057 35.2347 40.9733 35.1654 41.0971 35.0421C41.2209 34.9189 41.291 34.7517 41.2919 34.577C41.2917 34.4016 41.222 34.2335 41.098 34.1095C40.974 33.9855 40.8058 33.9158 40.6305 33.9157H17.1887L16.5126 30.7074H40.331C40.4939 30.708 40.6513 30.6481 40.7726 30.5393C40.8938 30.4305 40.9701 30.2805 40.9871 30.1185L42.1853 19.1671C42.1952 19.0778 42.1868 18.9875 42.1605 18.9017C42.1343 18.8158 42.0905 18.7362 42.0324 18.6678C41.9743 18.5996 41.9029 18.5438 41.8226 18.504C41.7423 18.4642 41.6547 18.4411 41.5652 18.4362L13.6074 16.9236L13.1017 14.5238C13.0697 14.3759 12.9883 14.2435 12.8708 14.1482C12.7532 14.053 12.6067 14.0007 12.4554 14H6.66028C6.48524 14.0002 6.31739 14.0698 6.19363 14.1935C6.06986 14.3173 6.00015 14.4851 6 14.6602C6 14.8353 6.06958 15.0034 6.19335 15.1273C6.31712 15.2513 6.48509 15.3211 6.66028 15.3214H11.9191L13.7135 23.8366C13.7169 23.8554 13.721 23.8731 13.7249 23.8897L16.0072 34.7127C16.0393 34.8607 16.1208 34.9932 16.2385 35.0885C16.3561 35.1837 16.5028 35.2359 16.6541 35.2365ZM39.7393 29.3859H35.0452L35.35 25.0924L40.1911 25.255L39.7393 29.3859ZM33.721 29.3859H28.6012V24.8676L34.0297 25.0496L33.721 29.3859ZM27.2798 29.3859H21.8023L21.3933 24.624L27.2798 24.8214V29.3859ZM20.477 29.3859H16.2326L15.1851 24.4151L20.0616 24.5789L20.477 29.3859ZM40.3349 23.9381L35.443 23.7738L35.7506 19.4432L40.7971 19.7159L40.3349 23.9381ZM34.1222 23.7299L28.6001 23.5445V19.0581L34.432 19.373L34.1222 23.7299ZM27.2787 23.5005L21.2774 23.2991L20.8751 18.6404L27.2787 18.9868V23.5005ZM19.948 23.2569L14.9059 23.0857L13.8899 18.265L19.5435 18.5708L19.948 23.2569Z" fill="currentColor"/>
</svg>
