<svg width="48" height="48" viewBox="0 0 48 48" fill="none" xmlns="http://www.w3.org/2000/svg">
<path d="M6.66354 38.226C6.48858 38.2258 6.32095 38.1561 6.19723 38.0324C6.07351 37.9087 6.00389 37.741 6.00363 37.566C6.00363 37.3909 6.073 37.2229 6.19674 37.099C6.32049 36.975 6.4884 36.9053 6.66354 36.905H9.08761V19.064C9.01411 19.07 8.93745 19.073 8.86495 19.073C8.34694 19.0776 7.83771 18.9392 7.39327 18.6731C6.94884 18.4069 6.58662 18.0233 6.34616 17.5645C6.09721 17.1102 5.97843 16.596 6.00314 16.0785C6.02784 15.5611 6.19495 15.0605 6.48605 14.632L9.70162 9.7955C9.76178 9.70471 9.84344 9.63025 9.93942 9.57877C10.0354 9.52729 10.1425 9.50038 10.2514 9.50049H37.7116C37.8206 9.50025 37.9279 9.52709 38.0239 9.57858C38.1199 9.63008 38.2014 9.70462 38.2614 9.7955L41.478 14.632C41.7687 15.0609 41.9356 15.5616 41.9602 16.0792C41.9847 16.5968 41.8661 17.1111 41.6171 17.5655C41.3762 18.0241 41.0134 18.4073 40.5688 18.6733C40.1243 18.9392 39.6151 19.0775 39.0971 19.073C39.0231 19.073 38.9494 19.07 38.8764 19.064V36.905H41.299C41.4743 36.905 41.6424 36.9746 41.7663 37.0986C41.8903 37.2226 41.9599 37.3907 41.9599 37.566C41.9597 37.7411 41.89 37.909 41.7661 38.0327C41.6421 38.1565 41.4742 38.226 41.299 38.226H6.66354ZM37.5547 36.9055V18.618C37.1509 18.3596 36.8185 18.0038 36.5881 17.5835C36.5711 17.6125 36.5536 17.6413 36.5356 17.67C36.2651 18.1 35.8896 18.4541 35.4445 18.699C34.9995 18.9439 34.4994 19.0716 33.9914 19.07C33.5143 19.0685 33.0443 18.9542 32.6198 18.7363C32.1953 18.5184 31.8285 18.2033 31.549 17.8165C31.5355 17.8355 31.5215 17.854 31.5075 17.873C31.2286 18.2459 30.8662 18.5483 30.4494 18.7562C30.0327 18.964 29.5733 19.0715 29.1076 19.07H28.8664C28.4121 19.0715 27.9637 18.9698 27.5544 18.7726C27.1452 18.5754 26.786 18.2878 26.5041 17.9315C26.4624 17.9842 26.4188 18.0355 26.3735 18.0855C26.0909 18.3954 25.7468 18.6429 25.3632 18.8124C24.9796 18.9819 24.5649 19.0697 24.1455 19.07H23.822C23.4028 19.0697 22.9883 18.982 22.6049 18.8125C22.2216 18.643 21.8777 18.3954 21.5954 18.0855C21.5501 18.0355 21.5066 17.9842 21.4646 17.9315C21.1827 18.2878 20.8235 18.5754 20.4143 18.7726C20.005 18.9698 19.5563 19.0715 19.102 19.07H18.861C18.3954 19.0715 17.9357 18.964 17.519 18.7562C17.1023 18.5483 16.7401 18.2459 16.4611 17.873C16.4471 17.8545 16.4331 17.8355 16.4196 17.8165C16.1403 18.2033 15.7734 18.5186 15.3488 18.7365C14.9243 18.9543 14.4542 19.0686 13.977 19.07C13.4689 19.0718 12.9688 18.9442 12.5236 18.6993C12.0785 18.4543 11.703 18.1001 11.4326 17.67C11.4146 17.6413 11.3971 17.6125 11.3801 17.5835C11.1494 18.0035 10.8171 18.3591 10.4135 18.6175V36.905H20.0566V24.443C20.0569 24.2681 20.1264 24.1005 20.25 23.9768C20.3736 23.8531 20.5412 23.7834 20.716 23.783H27.2561C27.4311 23.7833 27.599 23.8528 27.7229 23.9765C27.8467 24.1002 27.9164 24.2679 27.917 24.443V36.905L37.5547 36.9055ZM26.5901 36.9055V25.1055H21.3715V36.9055H26.5901ZM37.708 16.874C37.8332 17.1362 38.0301 17.3577 38.2756 17.5132C38.5211 17.6686 38.8056 17.7515 39.0962 17.7525C39.3748 17.755 39.6485 17.6806 39.8877 17.5375C40.1268 17.3944 40.322 17.1882 40.4516 16.9415C40.5856 16.6971 40.6496 16.4206 40.6367 16.1422C40.6237 15.8638 40.5342 15.5944 40.3781 15.3635L37.3576 10.8225H34.8339L36.3916 14.104L37.708 16.874ZM32.3659 16.524C32.4681 16.8764 32.6817 17.1863 32.9746 17.4074C33.2675 17.6285 33.624 17.7488 33.9909 17.7505C34.276 17.751 34.5567 17.6791 34.8064 17.5416C35.056 17.404 35.2666 17.2053 35.4184 16.964C35.568 16.7283 35.6568 16.4592 35.6765 16.1808C35.6962 15.9023 35.6463 15.6234 35.5315 15.369L34.1386 12.4355L33.3711 10.8205H30.7409L31.9995 15.236L32.009 15.2705L32.3659 16.524ZM27.1811 16.224C27.22 16.6429 27.4142 17.0322 27.7255 17.3151C28.0369 17.5981 28.4428 17.7543 28.8635 17.753H29.1045C29.3663 17.7541 29.6249 17.6939 29.8593 17.5772C30.0938 17.4606 30.2976 17.2906 30.4546 17.081C30.6097 16.8772 30.7161 16.6404 30.7653 16.389C30.8146 16.1376 30.8053 15.8783 30.7385 15.631L29.3686 10.823H26.6684L27.1391 15.78L27.1425 15.821L27.1811 16.224ZM22.1377 15.9045C22.114 16.1388 22.1401 16.3754 22.2146 16.5988C22.289 16.8222 22.41 17.0273 22.5695 17.2005C22.7271 17.3756 22.92 17.5154 23.1355 17.6107C23.3509 17.7059 23.584 17.7544 23.8195 17.753H24.143C24.3786 17.7543 24.6117 17.7057 24.8271 17.6105C25.0425 17.5153 25.2354 17.3756 25.393 17.2005C25.5491 17.0306 25.6683 16.8302 25.7431 16.612C25.8179 16.3938 25.8467 16.1624 25.8276 15.9325L25.6731 14.3045L25.342 10.823H22.6206L22.4704 12.4055L22.1377 15.9045ZM17.2336 15.601C17.1608 15.8521 17.1478 16.1168 17.1958 16.3738C17.2437 16.6308 17.351 16.873 17.5095 17.081C17.6663 17.2908 17.8702 17.4609 18.1047 17.5776C18.3392 17.6943 18.5977 17.7544 18.8596 17.753H19.1005C19.5213 17.7548 19.9274 17.5988 20.2387 17.3157C20.5501 17.0326 20.7439 16.6431 20.7819 16.224L21.1716 12.128L21.2956 10.823H18.5954L17.2336 15.601ZM12.4465 15.3395C12.3232 15.5966 12.2674 15.8809 12.2844 16.1656C12.3014 16.4502 12.3904 16.7259 12.5434 16.9665C12.6953 17.2079 12.9062 17.4067 13.156 17.5443C13.4058 17.6819 13.6865 17.7537 13.9716 17.753C14.3386 17.7513 14.6951 17.631 14.988 17.4099C15.2809 17.1888 15.4944 16.8789 15.5966 16.5265L15.9526 15.2765C15.9561 15.2635 15.9596 15.2505 15.9631 15.238L16.801 12.297L17.2212 10.8225H14.591L12.4465 15.3395ZM7.58444 15.364C7.42791 15.5947 7.3383 15.8641 7.32516 16.1425C7.31201 16.421 7.37587 16.6976 7.50997 16.942C7.63934 17.1886 7.83424 17.3949 8.07321 17.538C8.31217 17.681 8.58595 17.7554 8.86447 17.753C9.15524 17.7523 9.44 17.6695 9.68575 17.5141C9.93151 17.3586 10.1284 17.1369 10.2536 16.8745L12.02 13.1565L13.1286 10.8225H10.6049L7.58444 15.364ZM30.53 30.684C30.3549 30.6837 30.1869 30.614 30.0632 30.4901C29.9395 30.3661 29.8701 30.1981 29.8701 30.023V25.5635C29.8703 25.3885 29.94 25.2208 30.0637 25.0971C30.1874 24.9734 30.355 24.9038 30.53 24.9035H34.9885C35.1636 24.9035 35.3316 24.973 35.4555 25.0967C35.5795 25.2205 35.6494 25.3884 35.6496 25.5635V30.022C35.6496 30.1973 35.58 30.3655 35.456 30.4894C35.3321 30.6134 35.1638 30.683 34.9885 30.683L30.53 30.684ZM31.1906 29.3625H34.3271V26.226H31.1906V29.3625ZM12.9721 30.684C12.7971 30.6836 12.6292 30.6138 12.5056 30.4899C12.3819 30.366 12.3125 30.1981 12.3125 30.023V25.5635C12.3127 25.3886 12.3825 25.221 12.5061 25.0973C12.6297 24.9736 12.7973 24.9039 12.9721 24.9035H17.4306C17.6057 24.9036 17.7734 24.9732 17.8972 25.0969C18.021 25.2207 18.0908 25.3885 18.091 25.5635V30.022C18.091 30.1972 18.0215 30.3653 17.8977 30.4892C17.7738 30.6132 17.6058 30.6829 17.4306 30.683L12.9721 30.684ZM13.633 29.3625H16.7705V26.226H13.633V29.3625Z" fill="currentColor"/>
</svg>
