<svg width="48" height="48" viewBox="0 0 48 48" fill="none" xmlns="http://www.w3.org/2000/svg">
<path d="M24.0722 48C23.5556 48.0005 23.0453 47.8876 22.5771 47.6693C22.109 47.451 21.6944 47.1326 21.3628 46.7366L8.82105 31.806C6.45053 28.9841 4.93491 25.5441 4.45235 21.8904C3.9698 18.2367 4.54037 14.5211 6.097 11.1806C7.65363 7.84001 10.1316 5.01327 13.2396 3.03268C16.3476 1.05209 19.9565 -3.52647e-05 23.6419 5.1729e-07H24.499C28.1849 -0.000851444 31.7943 1.05068 34.9029 3.03095C38.0116 5.01122 40.4902 7.83791 42.0473 11.1786C43.6045 14.5194 44.1754 18.2352 43.693 21.8893C43.2106 25.5434 41.6949 28.9838 39.3242 31.806L26.7816 46.7366C26.45 47.1326 26.0354 47.451 25.5673 47.6693C25.0991 47.8876 24.5887 48.0005 24.0722 48ZM23.6436 1.64743C20.2718 1.64744 16.9701 2.61001 14.1266 4.42201C11.2831 6.234 9.01598 8.82009 7.59173 11.8763C6.16747 14.9325 5.64529 18.3318 6.08656 21.6745C6.52783 25.0173 7.91422 28.1646 10.0828 30.7466L22.6288 45.6771C22.8062 45.8884 23.0278 46.0582 23.2779 46.1748C23.528 46.2913 23.8006 46.3517 24.0765 46.3517C24.3524 46.3517 24.625 46.2913 24.875 46.1748C25.1251 46.0582 25.3467 45.8884 25.5242 45.6771L38.0573 30.7466C40.2256 28.165 41.6119 25.0181 42.0534 21.6758C42.4948 18.3335 41.9731 14.9346 40.5495 11.8786C39.1258 8.82261 36.8595 6.23645 34.0167 4.42408C31.174 2.6117 27.873 1.64842 24.5016 1.64743H23.6436Z" fill="currentColor"/>
<path d="M24.072 30.996C21.7698 30.996 19.5193 30.3133 17.6051 29.0343C15.6909 27.7553 14.199 25.9374 13.318 23.8104C12.437 21.6835 12.2065 19.3431 12.6556 17.0851C13.1048 14.8272 14.2134 12.7532 15.8412 11.1253C17.4691 9.49739 19.5432 8.38878 21.8011 7.93965C24.0591 7.49052 26.3995 7.72103 28.5264 8.60203C30.6533 9.48304 32.4713 10.975 33.7503 12.8892C35.0293 14.8033 35.712 17.0538 35.712 19.356C35.7088 22.4421 34.4814 25.401 32.2992 27.5832C30.1169 29.7654 27.1581 30.9928 24.072 30.996ZM24.072 9.36428C22.0958 9.36428 20.1641 9.95026 18.521 11.0481C16.8778 12.146 15.5972 13.7064 14.8409 15.5321C14.0846 17.3578 13.8867 19.3668 14.2722 21.305C14.6576 23.2431 15.6092 25.0235 17.0065 26.4209C18.4037 27.8183 20.184 28.77 22.1222 29.1556C24.0603 29.5412 26.0693 29.3435 27.895 28.5874C29.7208 27.8313 31.2814 26.5507 32.3794 24.9077C33.4774 23.2647 34.0635 21.333 34.0637 19.3568C34.061 16.7076 33.0074 14.1677 31.1342 12.2943C29.261 10.421 26.7212 9.36723 24.072 9.36428Z" fill="currentColor"/>
</svg>
