<svg width="24" height="24" viewBox="0 0 24 24" fill="none" xmlns="http://www.w3.org/2000/svg">
<path d="M22.9966 4.033C22.9955 3.2282 22.675 2.45673 22.1055 1.88803C21.5361 1.31933 20.7642 0.999904 19.9594 0.999904C19.1972 0.999904 18.435 0.999904 17.6735 0.999904C17.6272 0.999904 17.5809 1.00399 17.5374 1.00739V0.999904H17.287C13.0595 0.999904 8.34622 0.999904 4.12016 0.999904C3.70724 0.989217 3.29647 1.06274 2.91289 1.21598C2.52931 1.36923 2.18096 1.59899 1.88907 1.89126C1.59719 2.18353 1.36788 2.53218 1.21514 2.91596C1.0624 3.29974 0.989412 3.71061 1.00064 4.12351C1.00064 8.14541 1.00064 13.6318 1.00064 17.6551V17.9273C1.00064 18.62 1.00064 19.2958 1.00064 19.9688C1.0042 20.7688 1.32312 21.5351 1.88816 22.1015C2.4532 22.6678 3.21879 22.9884 4.01877 22.9938C9.33911 22.9992 14.6594 22.9992 19.9798 22.9938C20.7802 22.9895 21.5464 22.6688 22.1113 22.1017C22.6762 21.5347 22.9939 20.7672 22.9952 19.9668C22.9993 14.6546 22.9993 9.34246 22.9952 4.03028M15.112 13.9244C15.112 16.6497 15.112 19.3748 15.112 22.0996V22.4004H12.134V22.1084C12.134 19.424 12.134 16.7395 12.134 14.0551C12.134 13.5515 12.0891 13.5107 11.576 13.5107H10.366V10.5272H11.6372C12.0456 10.5272 12.102 10.4592 12.1136 10.0441C12.0993 9.31551 12.1284 8.58674 12.2007 7.86163C12.2697 7.12766 12.6124 6.44652 13.1606 5.95364C13.7088 5.46077 14.4225 5.19225 15.1596 5.20146C16.1049 5.15315 17.0542 5.19262 18.0178 5.19262V7.66224H17.7654C17.2706 7.66224 16.7759 7.65544 16.2811 7.66632C16.1485 7.66278 16.0164 7.68583 15.8928 7.73413C15.7692 7.78242 15.6565 7.85497 15.5614 7.9475C15.4662 8.04004 15.3906 8.15068 15.3389 8.27292C15.2872 8.39515 15.2605 8.52649 15.2604 8.65921C15.2413 9.1696 15.2488 9.68 15.2529 10.1918C15.2529 10.4347 15.359 10.5252 15.6285 10.5266C16.3342 10.5266 17.0399 10.5266 17.7449 10.5266H18.0485L17.7763 13.5059H17.5177C16.8526 13.5059 16.1875 13.5059 15.5224 13.5059C15.1882 13.5059 15.1086 13.5862 15.1086 13.9231M22.4099 19.9226C22.425 20.4793 22.2462 21.0239 21.9041 21.4634C21.562 21.9028 21.0778 22.2097 20.5344 22.3316C20.0546 22.4058 19.5686 22.4322 19.0835 22.4106C17.9654 22.4208 16.8467 22.4106 15.7102 22.4106V14.0905H17.8879C18.2342 14.0905 18.3071 14.0354 18.3397 13.6985C18.4482 12.577 18.5523 11.455 18.6521 10.3326C18.6766 10.0604 18.5663 9.94608 18.286 9.94472C17.5803 9.94132 16.8746 9.94472 16.1695 9.94472H15.8293C15.8293 9.55614 15.8259 9.19614 15.8293 8.83138C15.8347 8.39108 15.9776 8.24953 16.4152 8.24817C17.0236 8.24817 17.632 8.24817 18.2397 8.24817C18.4881 8.24817 18.6065 8.15018 18.6079 7.92765C18.6133 6.93 18.6113 5.93235 18.6079 4.93334C18.6124 4.88809 18.6066 4.8424 18.591 4.79971C18.5753 4.75702 18.5501 4.71846 18.5173 4.68693C18.4845 4.6554 18.445 4.63173 18.4018 4.61771C18.3585 4.60369 18.3126 4.59969 18.2676 4.606C18.0811 4.606 17.8947 4.60124 17.7082 4.606C16.7276 4.62098 15.7401 4.56789 14.769 4.66861C14.0909 4.71629 13.443 4.96791 12.9105 5.39043C12.3779 5.81295 11.9855 6.38663 11.7849 7.03616C11.5623 7.73287 11.4701 8.46463 11.5127 9.19478C11.5161 9.43569 11.5127 9.67659 11.5127 9.94336C11.0486 9.94336 10.6124 9.94336 10.1768 9.94336C9.82636 9.94336 9.74878 10.023 9.7481 10.3735C9.7481 11.4623 9.7481 12.5491 9.7481 13.6338C9.7481 14.0095 9.82772 14.0898 10.202 14.0905H11.5175V22.397C11.4889 22.4043 11.4597 22.4096 11.4304 22.4126C8.9165 22.4126 6.40196 22.4255 3.88811 22.4044C3.33879 22.3886 2.81229 22.1813 2.39971 21.8183C1.98712 21.4553 1.71441 20.9595 1.62876 20.4166C1.57727 19.6976 1.56296 18.9764 1.58589 18.256C1.58589 18.145 1.58589 18.0348 1.58589 17.928V17.6238C1.58589 13.6332 1.58589 8.18012 1.58589 4.18952C1.56447 3.84179 1.61722 3.49348 1.74067 3.16769C1.86411 2.8419 2.05542 2.54609 2.3019 2.29987C2.54837 2.05365 2.84439 1.86265 3.17031 1.73955C3.49622 1.61644 3.84459 1.56405 4.1923 1.58584H19.8246C20.1701 1.56693 20.5156 1.62122 20.8386 1.74515C21.1616 1.86907 21.4548 2.05983 21.6989 2.30494C21.9431 2.55005 22.1327 2.84397 22.2553 3.16745C22.378 3.49093 22.4309 3.83668 22.4106 4.18204C22.4106 6.35563 22.4106 8.52923 22.4106 10.7028C22.4106 13.7765 22.4106 16.8502 22.4106 19.9239" fill="currentColor"/>
</svg>
