<svg width="24" height="24" viewBox="0 0 24 24" fill="none" xmlns="http://www.w3.org/2000/svg">
<path d="M17.7047 23C17.2219 22.9828 16.7409 22.9324 16.265 22.8492C15.4302 22.6955 14.616 22.4452 13.8389 22.1034C12.7216 21.6173 11.6507 21.0305 10.6397 20.3502C9.26744 19.4176 7.99599 18.3444 6.84585 17.1481C5.88546 16.217 5.00106 15.2105 4.20112 14.1381C3.57249 13.2912 3.00666 12.3993 2.50818 11.4697C2.12132 10.7508 1.79579 10.0006 1.53506 9.22687C1.34491 8.65702 1.19786 8.07365 1.09516 7.48172C1.02302 7.08796 0.991746 6.68779 1.00185 6.28759C1.01518 6.03676 1.02318 5.88733 1.02451 5.85664C1.02335 5.83931 1.02335 5.82193 1.02451 5.80461C1.06693 5.54277 1.1492 5.28899 1.26846 5.05211C1.38141 4.80796 1.54078 4.58817 1.73768 4.40501L4.71434 1.42704C4.84165 1.29244 4.99499 1.18518 5.16504 1.11178C5.33508 1.03838 5.51826 1.00038 5.70345 1.00009C5.97321 0.996843 6.23636 1.0837 6.45127 1.24692C6.63987 1.38833 6.80075 1.56338 6.92583 1.76326L6.94183 1.78994L9.34128 6.35564C9.52065 6.67406 9.57484 7.04802 9.49325 7.40433C9.42534 7.74952 9.25644 8.0667 9.00802 8.3156L7.9256 9.39899V9.415C7.92167 9.42541 7.91855 9.43612 7.91627 9.44702C7.99512 9.76742 8.11474 10.0764 8.27219 10.3663C8.5055 10.809 8.77291 11.2327 9.07201 11.6338C9.54144 12.2535 10.0608 12.8336 10.625 13.3683C11.1667 13.9393 11.7538 14.4654 12.3806 14.9413C12.781 15.2433 13.2034 15.5149 13.6443 15.7539C13.8679 15.8806 14.1066 15.9783 14.3548 16.0447L14.5641 16.0874L14.5868 16.0807H14.6027L15.8611 14.7972L15.8811 14.7786C16.2095 14.4811 16.638 14.3186 17.0808 14.3236C17.3361 14.3156 17.5896 14.3682 17.8207 14.477C17.8501 14.4848 17.8783 14.4965 17.9047 14.5117L22.2423 17.0761C22.43 17.1797 22.5935 17.3222 22.7217 17.494C22.85 17.6659 22.9402 17.8632 22.9862 18.0727C22.9862 18.0807 22.9862 18.0901 22.9862 18.0981C23.0174 18.3203 22.9953 18.5468 22.9218 18.7588C22.8484 18.9709 22.7256 19.1624 22.5636 19.3176L19.5709 22.2822C19.3915 22.4731 19.177 22.6276 18.9391 22.7372C18.7022 22.8545 18.4486 22.9341 18.1873 22.9733C18.1691 22.9748 18.1508 22.9748 18.1326 22.9733L18.0366 22.9827C17.9487 22.9907 17.8393 22.996 17.706 22.996M1.79367 5.894C1.79367 5.95937 1.78301 6.1048 1.76968 6.33029C1.76419 6.6761 1.79322 7.0216 1.85632 7.36164C1.95277 7.91477 2.09091 8.45979 2.26956 8.99205C2.51589 9.72365 2.82312 10.4333 3.18802 11.1135C3.66926 12.0102 4.21548 12.8704 4.82231 13.6872C5.59848 14.7285 6.45657 15.706 7.38839 16.6104C8.50189 17.7686 9.73267 18.8078 11.0609 19.7112C12.0298 20.3654 13.056 20.9303 14.1269 21.3989C14.8472 21.7167 15.6018 21.95 16.3757 22.0941C16.8133 22.1704 17.2555 22.2176 17.6994 22.2355C17.806 22.2355 17.8927 22.2355 17.958 22.2262L18.0913 22.2155C18.2705 22.1856 18.4443 22.1294 18.6072 22.0487C18.7616 21.9775 18.9009 21.8774 19.0177 21.7538L22.0211 18.7692C22.0984 18.6985 22.1575 18.6102 22.1932 18.5116C22.229 18.4131 22.2404 18.3074 22.2263 18.2035C22.1991 18.1011 22.1508 18.0056 22.0844 17.9231C22.0181 17.8406 21.9352 17.773 21.8411 17.7245L17.5634 15.1895C17.5359 15.1816 17.5095 15.1704 17.4848 15.1561C17.3578 15.0937 17.2166 15.0661 17.0755 15.0761C16.8246 15.0726 16.5815 15.1635 16.3943 15.3309L15.124 16.6264C15.0401 16.7062 14.9388 16.7651 14.828 16.7986C14.72 16.8459 14.6009 16.8621 14.4841 16.8453L14.1988 16.7959C13.882 16.7155 13.5768 16.5944 13.291 16.4357C12.8167 16.1789 12.3626 15.8863 11.9327 15.5604C11.2722 15.0614 10.6535 14.5094 10.0824 13.91C9.48928 13.3437 8.94357 12.7297 8.45082 12.0741C8.1279 11.6427 7.83909 11.1868 7.58702 10.7105C7.3858 10.3401 7.23814 9.94301 7.14845 9.53107C7.14406 9.50731 7.14183 9.4832 7.14178 9.45903C7.14359 9.35981 7.1616 9.26156 7.19511 9.16817C7.22818 9.0572 7.28712 8.95568 7.36707 8.87197L8.46681 7.76991C8.61181 7.62455 8.70901 7.43836 8.74542 7.23622C8.78933 7.06012 8.76404 6.87386 8.67477 6.71588L6.27265 2.16086C6.19789 2.04456 6.10311 1.94247 5.99271 1.85932C5.90985 1.79589 5.80772 1.76292 5.70345 1.76593C5.61861 1.76671 5.53487 1.78515 5.45753 1.82006C5.38019 1.85497 5.31096 1.9056 5.25421 1.96873L2.26556 4.96005C2.13661 5.08002 2.03244 5.22418 1.95897 5.38433C1.87928 5.54522 1.82359 5.71693 1.79367 5.894Z" fill="currentColor"/>
</svg>
