<svg width="48" height="48" viewBox="0 0 48 48" fill="none" xmlns="http://www.w3.org/2000/svg">
<path d="M24 48C20.1047 48 16.2679 47.0519 12.821 45.2375C9.37406 43.4231 6.42056 40.7969 4.21552 37.5858C2.01049 34.3747 0.620188 30.6751 0.16467 26.8066C-0.290847 22.938 0.202111 19.0167 1.60098 15.3812C2.99984 11.7457 5.26258 8.50542 8.19379 5.94C11.125 3.37458 14.6366 1.56119 18.4254 0.656403C22.2141 -0.248383 26.1662 -0.217369 29.9403 0.746766C33.1282 1.56114 36.1081 3.02059 38.699 5.0279L38.2688 1.00028C38.2478 0.803297 38.3059 0.606032 38.4303 0.451877C38.5547 0.297722 38.7353 0.199305 38.9323 0.178277C39.1292 0.157249 39.3265 0.215333 39.4807 0.33975C39.6348 0.464167 39.7332 0.644726 39.7543 0.841706L40.3791 6.70456C40.3896 6.80199 40.3807 6.90053 40.3531 6.99454C40.3255 7.08855 40.2796 7.17619 40.218 7.25245C40.1565 7.32871 40.0805 7.3921 39.9945 7.43899C39.9084 7.48587 39.814 7.51534 39.7166 7.52571L33.9248 8.14371C33.8984 8.1465 33.8709 8.14793 33.8443 8.14799C33.6534 8.14752 33.4699 8.07392 33.3315 7.94232C33.1932 7.81073 33.1106 7.63114 33.1006 7.44048C33.0906 7.24982 33.154 7.06258 33.2778 6.91725C33.4017 6.77193 33.5764 6.67956 33.7663 6.65913L37.8105 6.22801C34.1976 3.4205 29.8025 1.77226 25.2074 1.5254C20.0566 1.24869 14.9671 2.74955 10.7907 5.77679C6.61422 8.80402 3.60428 13.1739 2.26462 18.1551C0.924962 23.1363 1.33688 28.4265 3.43144 33.1403C5.526 37.8541 9.17609 41.7054 13.7708 44.0497C18.3655 46.3939 23.626 47.0889 28.6718 46.0182C33.7177 44.9475 38.2427 42.1762 41.4895 38.1681C44.7363 34.1599 46.5079 29.1582 46.5077 24C46.5077 23.902 46.527 23.805 46.5645 23.7145C46.602 23.6239 46.657 23.5417 46.7262 23.4724C46.7955 23.4031 46.8778 23.3482 46.9683 23.3107C47.0588 23.2732 47.1559 23.2539 47.2538 23.2539C47.3518 23.2539 47.4489 23.2732 47.5394 23.3107C47.6299 23.3482 47.7122 23.4031 47.7814 23.4724C47.8507 23.5417 47.9057 23.6239 47.9432 23.7145C47.9807 23.805 48 23.902 48 24C47.993 30.363 45.4621 36.4634 40.9628 40.9628C36.4634 45.4621 30.363 47.993 24 48Z" fill="currentColor"/>
<path d="M32.5774 24.7466H24C23.902 24.7466 23.805 24.7272 23.7144 24.6897C23.6239 24.6522 23.5417 24.5972 23.4724 24.5278C23.4031 24.4585 23.3482 24.3762 23.3108 24.2856C23.2734 24.1951 23.2542 24.098 23.2543 24V7.42799C23.2543 7.33006 23.2736 7.23309 23.3111 7.14262C23.3485 7.05214 23.4035 6.96994 23.4727 6.90069C23.542 6.83145 23.6242 6.77652 23.7146 6.73904C23.8051 6.70157 23.9021 6.68228 24 6.68228C24.0979 6.68228 24.1949 6.70157 24.2854 6.73904C24.3759 6.77652 24.4581 6.83145 24.5273 6.90069C24.5965 6.96994 24.6515 7.05214 24.689 7.14262C24.7264 7.23309 24.7457 7.33006 24.7457 7.42799V23.2543H32.5774C32.7709 23.2608 32.9543 23.3423 33.0889 23.4815C33.2235 23.6207 33.2987 23.8068 33.2987 24.0004C33.2987 24.194 33.2235 24.3801 33.0889 24.5193C32.9543 24.6585 32.7709 24.74 32.5774 24.7466Z" fill="currentColor"/>
</svg>
