<svg width="24" height="24" viewBox="0 0 24 24" fill="none" xmlns="http://www.w3.org/2000/svg">
<path fill-rule="evenodd" clip-rule="evenodd" d="M8.86119 13.9051C9.70395 14.4738 10.6948 14.7773 11.7083 14.7773C13.0671 14.7759 14.3697 14.2302 15.3305 13.26C16.2913 12.2898 16.8317 10.9743 16.8331 9.60216C16.8331 8.57861 16.5325 7.57805 15.9694 6.727C15.4063 5.87595 14.6059 5.21264 13.6695 4.82094C12.7331 4.42925 11.7026 4.32676 10.7085 4.52644C9.71445 4.72613 8.80131 5.21901 8.08461 5.94277C7.3679 6.66653 6.87982 7.58866 6.68208 8.59254C6.48434 9.59642 6.58583 10.637 6.97371 11.5826C7.36158 12.5282 8.01843 13.3365 8.86119 13.9051ZM9.26847 5.91464C9.99073 5.42751 10.8398 5.16763 11.7083 5.16784C12.8723 5.16953 13.9881 5.63729 14.8111 6.46855C15.6341 7.29981 16.097 8.42672 16.0984 9.60216C16.0984 10.4792 15.8408 11.3366 15.3583 12.0658C14.8757 12.7951 14.1899 13.3635 13.3874 13.699C12.585 14.0346 11.702 14.1224 10.8502 13.9512C9.9984 13.78 9.21599 13.3576 8.60192 12.7373C7.98785 12.1171 7.56972 11.3268 7.40041 10.4666C7.2311 9.60636 7.31821 8.71473 7.65072 7.90448C7.98324 7.09423 8.54622 6.40176 9.26847 5.91464Z" fill="currentColor"/>
<path fill-rule="evenodd" clip-rule="evenodd" d="M11.5533 22.9653C11.6017 22.9881 11.6545 22.9999 11.7079 23C11.7613 22.9999 11.814 22.9881 11.8625 22.9654C11.9112 22.9426 11.9543 22.9093 11.9889 22.8678L18.4204 15.1365C19.4637 13.8823 20.1307 12.3533 20.343 10.7294C20.5553 9.10547 20.3042 7.45409 19.619 5.96936C18.9339 4.48464 17.8433 3.22828 16.4754 2.34799C15.1075 1.46769 13.5192 1.00004 11.8971 1H11.5192C9.89716 1.00004 8.30883 1.46769 6.94092 2.34799C5.57302 3.22828 4.4824 4.48464 3.79728 5.96936C3.11215 7.45409 2.86098 9.10547 3.07331 10.7294C3.28564 12.3533 3.95263 13.8823 4.99588 15.1365L11.4274 22.8678C11.4618 22.9092 11.5048 22.9424 11.5533 22.9653ZM7.33783 2.97852C8.5871 2.1743 10.0377 1.74678 11.5192 1.74616H11.8971C13.3787 1.74658 14.8294 2.17395 16.0789 2.97809C17.3283 3.78222 18.3246 4.92972 18.9506 6.28578C19.5766 7.64185 19.8064 9.15017 19.6131 10.6336C19.4197 12.117 18.8111 13.5138 17.8589 14.6601L11.7082 22.0534L5.55849 14.6601C4.6063 13.5139 3.99775 12.1171 3.80433 10.6338C3.61091 9.15053 3.84065 7.6423 4.46655 6.28627C5.09246 4.93024 6.08855 3.78273 7.33783 2.97852Z" fill="currentColor"/>
</svg>
