<svg width="48" height="48" viewBox="0 0 48 48" fill="none" xmlns="http://www.w3.org/2000/svg">
<path d="M37.4571 42.1869C37.1427 42.1858 36.8317 42.1223 36.542 42.0002C36.2523 41.8781 35.9897 41.6997 35.7694 41.4754L28.842 34.5429H4.98084C4.34269 34.5419 3.73089 34.2883 3.27933 33.8374C2.82776 33.3864 2.57322 32.775 2.57141 32.1369V7.55228C2.57232 6.91354 2.82646 6.30122 3.27812 5.84956C3.72978 5.3979 4.3421 5.14376 4.98084 5.14285H43.5308C44.17 5.14308 44.783 5.39692 45.2352 5.84865C45.6874 6.30039 45.9419 6.91309 45.9428 7.55228V32.1369C45.941 32.7754 45.6861 33.3873 45.234 33.8383C44.7819 34.2893 44.1694 34.5426 43.5308 34.5429H39.8837V39.7714C39.8895 40.2491 39.7509 40.7174 39.4862 41.115C39.2215 41.5126 38.8429 41.8211 38.4 42C38.1029 42.1243 37.7843 42.1887 37.4623 42.1894M4.98084 6.61542C4.73244 6.61565 4.49428 6.71443 4.31863 6.89007C4.14299 7.06572 4.04421 7.30388 4.04398 7.55228V32.1369C4.04421 32.3853 4.14299 32.6234 4.31863 32.7991C4.49428 32.9747 4.73244 33.0735 4.98084 33.0737H29.1428C29.3383 33.0738 29.5258 33.1515 29.664 33.2897L36.8091 40.4349C36.9401 40.5656 37.1069 40.6546 37.2885 40.6906C37.47 40.7266 37.6582 40.7081 37.8292 40.6373C38.0002 40.5665 38.1464 40.4466 38.2493 40.2929C38.3523 40.1391 38.4074 39.9582 38.4077 39.7731V33.81C38.4076 33.7132 38.4265 33.6174 38.4635 33.528C38.5004 33.4385 38.5547 33.3573 38.623 33.2888C38.6914 33.2203 38.7726 33.166 38.862 33.129C38.9514 33.0919 39.0472 33.0729 39.144 33.0729H43.5283C43.7767 33.0726 44.0148 32.9738 44.1905 32.7982C44.3661 32.6226 44.4649 32.3844 44.4651 32.136V7.55228C44.4649 7.30388 44.3661 7.06572 44.1905 6.89007C44.0148 6.71443 43.7767 6.61565 43.5283 6.61542H4.98084Z" fill="currentColor"/>
<path d="M28.6843 14.814H11.97C11.7747 14.814 11.5874 14.7364 11.4494 14.5983C11.3113 14.4603 11.2337 14.273 11.2337 14.0777C11.2337 13.8824 11.3113 13.6952 11.4494 13.5571C11.5874 13.419 11.7747 13.3414 11.97 13.3414H28.6843C28.8796 13.3414 29.0668 13.419 29.2049 13.5571C29.343 13.6952 29.4206 13.8824 29.4206 14.0777C29.4206 14.273 29.343 14.4603 29.2049 14.5983C29.0668 14.7364 28.8796 14.814 28.6843 14.814Z" fill="currentColor"/>
<path d="M36.5391 20.706H11.9708C11.7756 20.706 11.5883 20.6284 11.4502 20.4903C11.3121 20.3523 11.2345 20.165 11.2345 19.9697C11.2345 19.7744 11.3121 19.5872 11.4502 19.4491C11.5883 19.311 11.7756 19.2334 11.9708 19.2334H36.5391C36.7344 19.2334 36.9217 19.311 37.0597 19.4491C37.1978 19.5872 37.2754 19.7744 37.2754 19.9697C37.2754 20.165 37.1978 20.3523 37.0597 20.4903C36.9217 20.6284 36.7344 20.706 36.5391 20.706Z" fill="currentColor"/>
<path d="M36.5391 26.5971H11.9708C11.7756 26.5971 11.5883 26.5196 11.4502 26.3815C11.3121 26.2434 11.2345 26.0561 11.2345 25.8609C11.2345 25.6656 11.3121 25.4783 11.4502 25.3402C11.5883 25.2022 11.7756 25.1246 11.9708 25.1246H36.5391C36.7344 25.1246 36.9217 25.2022 37.0597 25.3402C37.1978 25.4783 37.2754 25.6656 37.2754 25.8609C37.2754 26.0561 37.1978 26.2434 37.0597 26.3815C36.9217 26.5196 36.7344 26.5971 36.5391 26.5971Z" fill="currentColor"/>
</svg>
