<svg width="24" height="24" viewBox="0 0 24 24" fill="none" xmlns="http://www.w3.org/2000/svg">
<path d="M12.0002 22.9999C9.82454 23.0001 7.69766 22.355 5.88858 21.1463C4.07949 19.9376 2.66946 18.2196 1.8368 16.2096C1.00414 14.1995 0.786242 11.9876 1.21067 9.85373C1.6351 7.71983 2.68279 5.75971 4.22125 4.22125C5.75971 2.68279 7.71983 1.6351 9.85373 1.21067C11.9876 0.786242 14.1995 1.00414 16.2096 1.8368C18.2196 2.66946 19.9376 4.07949 21.1463 5.88858C22.355 7.69766 23.0001 9.82454 22.9999 12.0002C22.9966 14.9165 21.8366 17.7124 19.7745 19.7745C17.7124 21.8366 14.9165 22.9966 12.0002 22.9999ZM12.0002 1.80774C9.98448 1.80774 8.01398 2.40548 6.33793 3.52539C4.66188 4.64529 3.35556 6.23704 2.58416 8.09937C1.81276 9.96169 1.61093 12.0109 2.00418 13.988C2.39744 15.965 3.36813 17.781 4.79349 19.2064C6.21885 20.6318 8.03487 21.6024 10.0119 21.9957C11.9889 22.389 14.0382 22.1871 15.9005 21.4157C17.7628 20.6443 19.3546 19.338 20.4745 17.662C21.5944 15.9859 22.1921 14.0154 22.1921 11.9996C22.1891 9.29752 21.1143 6.70695 19.2036 4.79626C17.2929 2.88557 14.7024 1.8108 12.0002 1.80774Z" fill="currentColor"/>
<path d="M11.9997 7.65976C9.19744 7.66393 6.50006 6.59439 4.46208 4.67103C4.3867 4.59699 4.34334 4.49636 4.34129 4.39073C4.33924 4.28509 4.37866 4.18286 4.45111 4.10595C4.52355 4.02904 4.62325 3.98358 4.72882 3.97932C4.83439 3.97506 4.93743 4.01233 5.01584 4.08315C6.90442 5.86504 9.4038 6.85586 12.0003 6.85196C14.6197 6.85662 17.1394 5.84812 19.0323 4.03746C19.1098 3.96355 19.2136 3.92346 19.3207 3.92603C19.4278 3.9286 19.5295 3.97362 19.6034 4.05117C19.6773 4.12872 19.7174 4.23247 19.7148 4.33957C19.7123 4.44668 19.6673 4.54838 19.5897 4.62229C17.5467 6.57634 14.8267 7.66472 11.9997 7.65976Z" fill="currentColor"/>
<path d="M4.77764 19.9906C4.69694 19.9902 4.61821 19.9656 4.5516 19.9201C4.48499 19.8745 4.43356 19.81 4.40392 19.735C4.37429 19.6599 4.36783 19.5777 4.38536 19.4989C4.40289 19.4202 4.44361 19.3484 4.50228 19.293C6.52819 17.4058 9.19128 16.3519 11.96 16.3417C14.7288 16.3315 17.3995 17.3659 19.4392 19.2382C19.4783 19.2742 19.5099 19.3175 19.5322 19.3658C19.5546 19.414 19.5672 19.4661 19.5694 19.5192C19.5715 19.5723 19.5632 19.6253 19.5449 19.6752C19.5266 19.7251 19.4987 19.7709 19.4627 19.8099C19.4267 19.849 19.3833 19.8806 19.3351 19.903C19.2869 19.9253 19.2348 19.9379 19.1817 19.9401C19.1286 19.9423 19.0756 19.934 19.0257 19.9156C18.9758 19.8973 18.93 19.8694 18.891 19.8334C17.0012 18.0983 14.5266 17.1398 11.9612 17.1492C9.39572 17.1585 6.92818 18.1351 5.05117 19.884C4.97661 19.954 4.87808 19.9928 4.77581 19.9924" fill="currentColor"/>
<path d="M12.0002 22.9999C8.65818 22.9999 6.03929 18.1678 6.03929 11.9997C6.03929 5.83156 8.65763 1 11.9997 1C15.3418 1 17.9601 5.83156 17.9601 12.0003C17.9601 18.1691 15.3411 22.9999 12.0002 22.9999ZM12.0002 1.80774C9.15894 1.80774 6.84709 6.3774 6.84709 12.0003C6.84709 17.6232 9.15839 22.1922 11.9997 22.1922C14.841 22.1922 17.1523 17.6196 17.1523 12.0003C17.1523 6.38105 14.8416 1.80774 12.0002 1.80774Z" fill="currentColor"/>
<path d="M22.5961 12.4036H1.4039C1.29678 12.4036 1.19404 12.361 1.1183 12.2853C1.04255 12.2095 1 12.1068 1 11.9997C1 11.8926 1.04255 11.7898 1.1183 11.7141C1.19404 11.6384 1.29678 11.5958 1.4039 11.5958H22.5961C22.7032 11.5958 22.806 11.6384 22.8817 11.7141C22.9574 11.7898 22.9999 11.8931 22.9999 12.0002C22.9999 12.1074 22.9574 12.2095 22.8817 12.2853C22.806 12.361 22.7032 12.4036 22.5961 12.4036Z" fill="currentColor"/>
<path d="M12.0002 22.9999C11.8931 22.9999 11.7905 22.9574 11.7147 22.8817C11.639 22.806 11.5964 22.7032 11.5964 22.5961V1.4039C11.5964 1.29678 11.639 1.19404 11.7147 1.1183C11.7905 1.04255 11.8926 1 11.9997 1C12.1068 1 12.2102 1.04255 12.2859 1.1183C12.3617 1.19404 12.4042 1.29678 12.4042 1.4039V22.5961C12.404 22.7032 12.3614 22.8058 12.2857 22.8815C12.21 22.9572 12.1073 22.9998 12.0002 22.9999Z" fill="currentColor"/>
</svg>
