<svg width="25" height="24" viewBox="0 0 25 24" fill="none" xmlns="http://www.w3.org/2000/svg">
<path fill-rule="evenodd" clip-rule="evenodd" d="M11.9899 17.3716C10.9272 17.3696 9.88889 17.0525 9.00642 16.4603C8.12396 15.8682 7.43697 15.0276 7.03236 14.0449C6.62776 13.0622 6.52373 11.9815 6.73343 10.9397C6.94313 9.89786 7.45714 8.94162 8.21043 8.19198C8.96371 7.44233 9.92243 6.93297 10.9653 6.72833C12.0081 6.52369 13.0882 6.63296 14.069 7.04233C15.0497 7.4517 15.887 8.14276 16.4748 9.02808C17.0627 9.91341 17.3748 10.9532 17.3716 12.016C17.3647 13.4387 16.7946 14.8009 15.7861 15.8045C14.7776 16.8082 13.4127 17.3716 11.9899 17.3716ZM12.0036 7.45929C11.1062 7.45878 10.2288 7.72419 9.48221 8.22201C8.73559 8.71983 8.15322 9.42772 7.80866 10.2563C7.4641 11.0849 7.3728 11.997 7.54628 12.8774C7.71975 13.7579 8.15024 14.5671 8.78336 15.2031C9.41648 15.839 10.2239 16.2731 11.1035 16.4505C11.9832 16.6279 12.8957 16.5406 13.7258 16.1997C14.5559 15.8588 15.2663 15.2796 15.7675 14.5352C16.2686 13.7908 16.5379 12.9146 16.5414 12.0173C16.5434 10.8113 16.0667 9.65378 15.2158 8.79913C14.3649 7.94448 13.2096 7.46256 12.0036 7.45929Z" fill="currentColor"/>
<path d="M18.8645 6.39469C19.0301 6.23094 19.1253 6.00897 19.1296 5.7761C19.1319 5.65685 19.1102 5.53836 19.0659 5.42762C19.0216 5.31687 18.9556 5.21613 18.8717 5.13131C18.7879 5.04649 18.6879 4.97932 18.5777 4.93376C18.4674 4.88821 18.3492 4.86518 18.2299 4.86605C18.1106 4.86692 17.9928 4.89167 17.8832 4.93882C17.7736 4.98598 17.6747 5.0546 17.592 5.14064C17.5094 5.22667 17.4449 5.32837 17.4022 5.43975C17.3595 5.55112 17.3396 5.66992 17.3436 5.78912C17.3513 6.02191 17.4497 6.24246 17.6177 6.40378C17.7857 6.5651 18.01 6.65443 18.2429 6.65273C18.4759 6.65103 18.6989 6.55844 18.8645 6.39469Z" fill="currentColor"/>
<path fill-rule="evenodd" clip-rule="evenodd" d="M11.9952 22.9994H6.87465C5.47212 23.02 4.10984 22.5305 3.04122 21.6219C1.9726 20.7133 1.27038 19.4475 1.06519 18.0599C1.02191 17.7737 1.00145 17.4846 1.00399 17.1952C1.00138 13.732 1.00008 10.2677 1.00008 6.80237C0.996097 6.03894 1.14368 5.28232 1.43427 4.57636C1.72486 3.87039 2.15268 3.22912 2.69293 2.68972C3.23318 2.15032 3.87512 1.7235 4.58154 1.43402C5.28796 1.14454 6.04482 0.99815 6.80823 1.00333C10.2662 1.00116 13.7242 1.00007 17.1822 1.00007C17.9467 0.996197 18.7043 1.14383 19.4115 1.43444C20.1186 1.72505 20.7611 2.15289 21.3019 2.69323C21.8428 3.23358 22.2712 3.87572 22.5624 4.58257C22.8537 5.28943 23.002 6.04698 22.9988 6.81148C23.0027 10.2621 23.0027 13.7131 22.9988 17.1646C23.0092 18.5626 22.5136 19.9172 21.6033 20.9783C20.693 22.0393 19.4296 22.7353 18.0462 22.9376C17.7525 22.979 17.456 22.9986 17.1594 22.9962C16.0116 22.9996 14.8639 22.9985 13.7162 22.9973C13.1423 22.9967 12.5684 22.9962 11.9945 22.9962L11.9952 22.9994ZM10.6777 1.82836C9.42391 1.82749 8.17063 1.82661 6.91957 1.83288C6.57043 1.82872 6.22165 1.85706 5.87775 1.91753C4.72779 2.1279 3.6897 2.73931 2.94812 3.64305C2.20653 4.54678 1.80952 5.68424 1.82767 6.85315C1.8229 10.2825 1.8229 13.7103 1.82767 17.1366C1.82368 17.3517 1.8339 17.5668 1.85828 17.7806C1.99845 19.0031 2.58904 20.1295 3.51484 20.9401C4.44064 21.7507 5.63523 22.1872 6.86553 22.1647C10.2784 22.1686 13.6912 22.1686 17.104 22.1647C17.445 22.1682 17.7856 22.1392 18.1211 22.0781C19.274 21.864 20.3133 21.2471 21.0534 20.3375C21.7935 19.4279 22.1862 18.2849 22.1614 17.1125C22.1649 13.707 22.1649 10.3016 22.1614 6.89613C22.1653 6.55517 22.1367 6.21461 22.0761 5.87905C21.8653 4.73367 21.2566 3.69959 20.3574 2.95939C19.4583 2.21918 18.3265 1.82043 17.162 1.83353C16.0146 1.82789 14.867 1.82977 13.7195 1.83165C13.1458 1.83259 12.5721 1.83353 11.9985 1.83353L11.9945 1.82897C11.5557 1.82897 11.1165 1.82867 10.6777 1.82836Z" fill="currentColor"/>
</svg>
